Simulation
nRows=32
nColumns=15
endheader
time  TH_x TH_y TH_z SC_y  SC_z  SC_x  AC_y  AC_z  AC_x  GH_y  GH_z  GH_yy  EL_x  PS_y
0.0  0.000000  0.000000  0.000000  -29.381239058439633  -0.283606963283068  2.591225478551628  50.42787369890404  4.124315533798603  -6.492001906683531  47.28898094356368  -1.5801334972800654  -17.781318190955787  22.646948772340217  0.000000
0.031  0.000000  0.000000  0.000000  -29.069938822062582  -0.25515952793412094  2.7109366343361936  50.2253398726255  3.985713603599214  -6.6685737688053335  47.15237728023345  -1.5970051438147528  -17.847148760936847  22.76373808074433  0.000000
0.062  0.000000  0.000000  0.000000  -29.008887219285825  -0.27040747209148214  2.818409586793424  50.10312977193006  3.9195987089132656  -6.883301292219574  47.14874113220396  -1.6347120617931226  -17.70800911602405  22.83114092651678  0.000000
0.093  0.000000  0.000000  0.000000  -29.132684309457574  -0.3434156456622867  2.971628694427871  50.05446224009313  3.8359505789243995  -7.066250671401158  47.10947433879108  -1.6060265868762373  -17.516460221395786  22.74039759700082  0.000000
0.124  0.000000  0.000000  0.000000  -29.158667637091753  -0.4285352724046571  3.1121381444128504  50.044656868211455  3.71666797904896  -7.242545418435712  46.9317669616994  -1.489284332856472  -17.362775322580934  22.63579038785221  0.000000
0.155  0.000000  0.000000  0.000000  -29.209338107311964  -0.5079129591573902  3.2408354331065166  50.042890650144834  3.593839041208457  -7.391889736282873  46.68192632530337  -1.2449088531865111  -17.177547499209105  22.522259313781884  0.000000
0.186  0.000000  0.000000  0.000000  -29.234020166206456  -0.5745655547700719  3.345709796938006  50.0221287093553  3.4627877417364865  -7.522368234147294  46.29941734222584  -0.8583169314954765  -17.014805536094762  22.38578861970375  0.000000
0.217  0.000000  0.000000  0.000000  -29.28156167398532  -0.6375501102161663  3.464129067242776  50.00070160832278  3.3495825089690134  -7.672371033584041  45.82470595870066  -0.3154584282013763  -16.82055731569151  22.207168795560683  0.000000
0.248  0.000000  0.000000  0.000000  -29.362807765515  -0.7056304496244419  3.5397865391138135  49.94985375992795  3.2951783034463555  -7.821187365978688  45.212160644355755  0.39744479344484823  -16.582905417413635  21.98476248686277  0.000000
0.279  0.000000  0.000000  0.000000  -29.458295438799876  -0.7675721514431029  3.5496393068983454  49.89215263472879  3.2652859701908996  -7.936801362586828  44.410643570948764  1.2819513377906167  -16.26104897850872  21.734558590566063  0.000000
0.31  0.000000  0.000000  0.000000  -29.522413959317266  -0.8015856365439922  3.5861223395033712  49.816219298897124  3.179037806436004  -8.043112506406835  43.39674055700131  2.269186393982258  -15.864253998467762  21.517347634767752  0.000000
0.34099999999999997  0.000000  0.000000  0.000000  -29.568051402350648  -0.8121802243380941  3.674535934763343  49.757559812015394  3.0688646462795126  -8.16196062447303  42.23211636582173  3.310120082500451  -15.418455200543809  21.357089372578244  0.000000
0.372  0.000000  0.000000  0.000000  -29.62786666253806  -0.822140914175721  3.769877759809935  49.72615826163028  3.010788799571696  -8.260632330315858  40.993409889954286  4.395077496862923  -14.950777124668495  21.230729149954023  0.000000
0.403  0.000000  0.000000  0.000000  -29.723379158514906  -0.8450795143836979  3.8217213964239796  49.77115035617925  3.018922622699918  -8.281470944533831  39.68682944186722  5.550160118889579  -14.533821559876142  21.13266476614969  0.000000
0.434  0.000000  0.000000  0.000000  -29.857688650631722  -0.8800368765905913  3.8184399037757615  49.919918774824346  3.0780687049238438  -8.182203076813554  38.314932506862476  6.781360232711694  -14.218599392432134  21.09394188769878  0.000000
0.46499999999999997  0.000000  0.000000  0.000000  -30.0102828198533  -0.920512180849021  3.771153719065131  50.17084905585951  3.1701275856773967  -7.9719499728036665  36.897375741181136  8.088448406980458  -14.014230652644674  21.130469071495416  0.000000
0.496  0.000000  0.000000  0.000000  -30.152952153489675  -0.9567678680529448  3.684834090759064  50.48165413614598  3.306295530354829  -7.687498120174362  35.47601425650425  9.463430044541084  -13.881531608159591  21.240284838976898  0.000000
0.527  0.000000  0.000000  0.000000  -30.25812643201566  -0.9713160145865758  3.5700152826584137  50.80255461536901  3.490534151704446  -7.363607355597527  34.096361365249486  10.896983805178179  -13.769551896387043  21.38201068487116  0.000000
0.558  0.000000  0.000000  0.000000  -30.320569143672266  -0.9521621980022362  3.4532009750338006  51.10089826190504  3.7098483914029483  -7.037051754740021  32.796773783114425  12.388385850495016  -13.641317030963373  21.511350347702265  0.000000
0.589  0.000000  0.000000  0.000000  -30.34794646841912  -0.8925349598225508  3.3673522400733007  51.358785914661524  3.944175110386188  -6.735209570566367  31.601879716330338  13.932706782444164  -13.49591356275529  21.60454751126903  0.000000
0.62  0.000000  0.000000  0.000000  -30.358406270727997  -0.7904537358647501  3.342931882558525  51.575084654068206  4.173799849156994  -6.477170456717293  30.531032667290212  15.525841151820343  -13.358654658226278  21.65920265917775  0.000000
0.651  0.000000  0.000000  0.000000  -30.368383860162922  -0.647520219303745  3.3991453189584693  51.756180746093804  4.3865662996037615  -6.268541761461428  29.598469201449227  17.164943800770818  -13.264681509293172  21.679920098641436  0.000000
0.6819999999999999  0.000000  0.000000  0.000000  -30.382148768708706  -0.47093055281678914  3.5431039403690656  51.915671598874006  4.573258460748329  -6.108281505238879  28.798653890500873  18.856615939311645  -13.24068310851045  21.66873404526351  0.000000
0.713  0.000000  0.000000  0.000000  -30.389665524291804  -0.274058826777994  3.7735011057185432  52.064730318131154  4.728828090918912  -5.995808620240111  28.099983159467232  20.612987113427224  -13.288838355601817  21.629472348663853  0.000000
0.744  0.000000  0.000000  0.000000  -30.374456422942526  -0.0715199216744016  4.08237320199899  52.21030263504249  4.852688790122302  -5.933222306436991  27.455142709790056  22.445254929182045  -13.386034050138212  21.571010386888307  0.000000
0.775  0.000000  0.000000  0.000000  -30.326257311472755  0.12630335762300776  4.459310723626039  52.35449570809396  4.950775467335484  -5.92038043809756  26.827844094070034  24.35035850199542  -13.50096850774207  21.503855770287807  0.000000
0.806  0.000000  0.000000  0.000000  -30.24846315595952  0.3165843438548039  4.899681832237652  52.501818408956375  5.02970115010101  -5.952930390568411  26.212002140494764  26.305122013445384  -13.618709125975892  21.43073387643512  0.000000
0.837  0.000000  0.000000  0.000000  -30.15611851668046  0.502900690581204  5.407190234588089  52.65856283869163  5.096566923954788  -6.0238025350678415  25.630803636208835  28.26695655982198  -13.749240722052162  21.346621902483705  0.000000
0.868  0.000000  0.000000  0.000000  -30.065075402946295  0.6898329858449745  5.984911528608156  52.83055648604383  5.15858574653039  -6.124904882278015  25.11468187146739  30.190214609297605  -13.91554132471515  21.24247645799576  0.000000
0.899  0.000000  0.000000  0.000000  -29.983304744259666  0.8782321350945156  6.632859853664194  53.018995735667296  5.21989814750644  -6.252333508325426  24.681442374433267  32.04044372084085  -14.133547976489988  21.112330296026325  0.000000
0.9299999999999999  0.000000  0.000000  0.000000  -29.90977664100537  1.0653962701031714  7.346122090968965  53.220482235828875  5.27885700513651  -6.406307473142214  24.329234385839726  33.802068945038705  -14.404432064328972  20.954834765110277  0.000000
0.961  0.000000  0.000000  0.000000  -29.839849078295767  1.2478074514048303  8.118286915596997  53.42696227146255  5.331813598114276  -6.590391563578295  24.04695402733719  35.47113253185441  -14.723279124902847  20.77047143693805  0.000000
